<svg xmlns="http://www.w3.org/2000/svg" width="40" height="40" fill="none"><g fill="#fff"><path d="M18.417 24.917 15.333 28c-.65.65-1.683.65-2.35.017-.183-.184-.366-.35-.55-.534a47.4 47.4 0 0 1-4.65-5.45c-1.366-1.9-2.466-3.8-3.266-5.683-.784-1.9-1.184-3.717-1.184-5.45 0-1.133.2-2.217.6-3.217.4-1.016 1.034-1.95 1.917-2.783 1.067-1.05 2.234-1.567 3.467-1.567.466 0 .933.1 1.35.3.433.2.816.5 1.117.934l3.866 5.45c.3.416.517.8.667 1.166.15.35.233.7.233 1.017 0 .4-.117.8-.35 1.183-.216.384-.533.784-.933 1.184L14 15.883a.9.9 0 0 0-.267.667c0 .133.017.25.05.383.05.134.1.234.134.334.3.55.816 1.266 1.55 2.133.75.867 1.55 1.75 2.417 2.633.166.167.35.334.516.5a1.67 1.67 0 0 1 .017 2.384M36.617 30.55c0 .467-.084.95-.25 1.417-.05.133-.1.266-.167.4-.283.6-.65 1.166-1.133 1.7-.817.9-1.717 1.55-2.734 1.966-.016 0-.033.017-.05.017a8.4 8.4 0 0 1-3.2.617c-1.7 0-3.516-.4-5.433-1.217s-3.833-1.917-5.733-3.3c-.65-.483-1.3-.967-1.917-1.483l5.45-5.45c.467.35.883.616 1.233.8.084.033.184.083.3.133.134.05.267.067.417.067.283 0 .5-.1.683-.284l1.267-1.25c.417-.416.817-.733 1.2-.933a2.2 2.2 0 0 1 1.183-.35c.317 0 .65.067 1.017.217s.75.366 1.167.65l5.516 3.916c.434.3.734.65.917 1.067.167.417.267.833.267 1.3"/></g></svg>