<svg xmlns="http://www.w3.org/2000/svg" width="40" height="40" fill="none"><g fill="#fff"><path d="M31.15 19.217c-.95-.25-2.067-.384-3.4-.384-1.85 0-2.533.45-3.483 1.167-.05.033-.1.083-.15.133l-1.584 1.684c-1.316 1.416-3.733 1.416-5.066 0l-1.584-1.667a.6.6 0 0 0-.15-.15c-.966-.717-1.65-1.167-3.483-1.167-1.333 0-2.45.117-3.4.384-3.967 1.066-3.967 4.216-3.967 6.983v1.55c0 4.183 0 8.917 8.917 8.917h12.4c5.917 0 8.917-3 8.917-8.917V26.2c0-2.767 0-5.917-3.967-6.983"/><path d="M24.65 3.333h-9.3c-7.367 0-7.367 3.917-7.367 7.367v6.167c.067-.034.15-.05.217-.067 1.167-.317 2.483-.467 4.05-.467 2.567 0 3.783.75 4.983 1.667.167.117.334.267.484.433l1.566 1.65c.167.184.434.284.717.284s.55-.1.7-.267l1.6-1.683c.133-.134.283-.284.45-.4 1.233-.934 2.433-1.684 5-1.684 1.567 0 2.883.15 4.05.467.067.017.15.033.217.067V10.7c0-3.45 0-7.367-7.367-7.367m-2.067 10.834h-5.166A1.18 1.18 0 0 1 16.25 13c0-.65.533-1.167 1.167-1.167h5.166A1.17 1.17 0 0 1 23.75 13c0 .633-.533 1.167-1.167 1.167m1.3-4.65h-7.766c-.634 0-1.15-.534-1.15-1.167 0-.65.516-1.167 1.15-1.167h7.766c.634 0 1.15.517 1.15 1.167 0 .633-.516 1.167-1.15 1.167"/></g></svg>