<svg xmlns="http://www.w3.org/2000/svg" width="60" height="60" fill="none"><path fill="#fff" fill-rule="evenodd" d="M10.714 38.571a3.214 3.214 0 1 1 0 6.429 3.214 3.214 0 0 1 0-6.429m38.57 1.072c1.185 0 2.145.951 2.145 2.143a2.14 2.14 0 0 1-2.145 2.143H19.288a2.14 2.14 0 0 1-2.145-2.143 2.14 2.14 0 0 1 2.145-2.143zm-38.57-11.786a3.214 3.214 0 1 1 0 6.428 3.214 3.214 0 0 1 0-6.428m38.57 1.072c1.185 0 2.145.951 2.145 2.142a2.14 2.14 0 0 1-2.145 2.143H19.288a2.14 2.14 0 0 1-2.145-2.143 2.14 2.14 0 0 1 2.145-2.142zm-38.57-11.786a3.214 3.214 0 1 1 0 6.428 3.214 3.214 0 0 1 0-6.428m38.57 1.071c1.185 0 2.145.952 2.145 2.143a2.14 2.14 0 0 1-2.145 2.143H19.288a2.14 2.14 0 0 1-2.145-2.143 2.14 2.14 0 0 1 2.145-2.143z" clip-rule="evenodd"/></svg>