<svg xmlns="http://www.w3.org/2000/svg" width="60" height="48" fill="none"><path fill="#fff" d="M9 21c3.31 0 6-2.69 6-6s-2.69-6-6-6-6 2.69-6 6 2.69 6 6 6m42 0c3.31 0 6-2.69 6-6s-2.69-6-6-6-6 2.69-6 6 2.69 6 6 6m3 3h-6c-1.65 0-3.14.666-4.228 1.744 3.778 2.072 6.46 5.812 7.04 10.256H57c1.66 0 3-1.34 3-3v-3c0-3.31-2.69-6-6-6m-24 0c5.803 0 10.5-4.697 10.5-10.5S35.803 3 30 3 19.5 7.697 19.5 13.5 24.197 24 30 24m7.2 3h-.778c-1.95.938-4.116 1.5-6.422 1.5s-4.462-.562-6.422-1.5H22.8C16.837 27 12 31.837 12 37.8v2.7c0 2.484 2.016 4.5 4.5 4.5h27c2.484 0 4.5-2.016 4.5-4.5v-2.7C48 31.838 43.163 27 37.2 27m-20.972-1.256A5.98 5.98 0 0 0 12 24H6c-3.31 0-6 2.69-6 6v3c0 1.66 1.34 3 3 3h6.178c.59-4.444 3.272-8.184 7.05-10.256"/></svg>