<svg width="60" height="56" viewBox="0 0 60 56" fill="none" xmlns="http://www.w3.org/2000/svg">
<g id="fa:university">
<path id="Vector" d="M30 0L60 12V16H56C56 16.5417 55.7865 17.0104 55.3594 17.4062C54.9323 17.8021 54.4271 18 53.8438 18H6.15625C5.57292 18 5.06771 17.8021 4.64062 17.4062C4.21354 17.0104 4 16.5417 4 16H0V12L30 0ZM8 20H16V44H20V20H28V44H32V20H40V44H44V20H52V44H53.8438C54.4271 44 54.9323 44.1979 55.3594 44.5938C55.7865 44.9896 56 45.4583 56 46V48H4V46C4 45.4583 4.21354 44.9896 4.64062 44.5938C5.06771 44.1979 5.57292 44 6.15625 44H8V20ZM57.8438 50C58.4271 50 58.9323 50.1979 59.3594 50.5938C59.7865 50.9896 60 51.4583 60 52V56H0V52C0 51.4583 0.213542 50.9896 0.640625 50.5938C1.06771 50.1979 1.57292 50 2.15625 50H57.8438Z" fill="white"/>
</g>
</svg>
