<svg xmlns="http://www.w3.org/2000/svg" width="40" height="40" fill="none"><g fill="#fff"><path d="M12.75 34.85c-.05 0-.117.033-.167.033-3.233-1.6-5.866-4.25-7.483-7.483 0-.05.033-.117.033-.167 2.034.6 4.134 1.05 6.217 1.4.367 2.1.8 4.184 1.4 6.217M34.9 27.417c-1.65 3.316-4.4 6-7.75 7.616.633-2.116 1.167-4.25 1.517-6.4 2.1-.35 4.166-.8 6.2-1.4-.017.067.033.134.033.184M35.033 12.85a53 53 0 0 0-6.366-1.517 46.5 46.5 0 0 0-1.517-6.366 16.75 16.75 0 0 1 7.883 7.883M12.75 5.15c-.6 2.033-1.033 4.1-1.383 6.2-2.15.333-4.284.867-6.4 1.5 1.616-3.35 4.3-6.1 7.617-7.75.05 0 .116.05.166.05M25.816 10.983a52.2 52.2 0 0 0-11.633 0c.417-2.283.95-4.566 1.7-6.766.033-.134.017-.234.033-.367 1.317-.317 2.667-.517 4.084-.517 1.4 0 2.766.2 4.066.517.017.133.017.233.05.367.75 2.216 1.284 4.483 1.7 6.766M10.984 25.817c-2.3-.417-4.567-.95-6.767-1.7-.133-.034-.233-.017-.367-.034-.316-1.316-.517-2.666-.517-4.083 0-1.4.2-2.767.517-4.067.133-.016.233-.016.367-.05a50 50 0 0 1 6.767-1.7 54.3 54.3 0 0 0 0 11.634M36.667 20c0 1.417-.2 2.767-.517 4.083-.133.017-.233 0-.367.034-2.216.733-4.483 1.283-6.766 1.7a52.2 52.2 0 0 0 0-11.634c2.283.417 4.566.95 6.766 1.7.134.034.234.05.367.05.317 1.317.517 2.667.517 4.067M25.816 29.017c-.416 2.3-.95 4.566-1.7 6.766-.033.134-.033.234-.05.367-1.3.317-2.666.517-4.066.517-1.417 0-2.767-.2-4.084-.517-.016-.133 0-.233-.033-.367a50 50 0 0 1-1.7-6.766c1.933.216 3.867.366 5.817.366s3.9-.15 5.816-.366M26.272 26.272a50 50 0 0 1-12.544 0 50 50 0 0 1 0-12.544 50 50 0 0 1 12.544 0 50 50 0 0 1 0 12.544"/></g></svg>