<svg xmlns="http://www.w3.org/2000/svg" width="80" height="80" fill="none"><rect width="80" height="80" fill="#225093" rx="6"/><g fill="#fff"><path d="M34.667 23.333H33c-5 0-6.666 2.984-6.666 6.667v25c0 1.383 1.566 2.167 2.666 1.333l2.85-2.133a1.68 1.68 0 0 1 2.2.167l2.767 2.783c.65.65 1.716.65 2.367 0l2.8-2.8a1.65 1.65 0 0 1 2.166-.15L47 56.333c1.1.817 2.667.034 2.667-1.333V26.667c0-1.834 1.5-3.334 3.333-3.334zM32.95 43.35c-.917 0-1.667-.75-1.667-1.667 0-.916.75-1.666 1.667-1.666s1.667.75 1.667 1.666c0 .917-.75 1.667-1.667 1.667m0-6.667c-.917 0-1.667-.75-1.667-1.666 0-.917.75-1.667 1.667-1.667s1.667.75 1.667 1.667c0 .916-.75 1.666-1.667 1.666M43 42.933h-5a1.26 1.26 0 0 1-1.25-1.25c0-.683.567-1.25 1.25-1.25h5c.684 0 1.25.567 1.25 1.25a1.26 1.26 0 0 1-1.25 1.25m0-6.666h-5a1.26 1.26 0 0 1-1.25-1.25c0-.684.567-1.25 1.25-1.25h5c.684 0 1.25.566 1.25 1.25a1.26 1.26 0 0 1-1.25 1.25"/><path d="M53.017 23.333v2.5c1.1 0 2.15.45 2.916 1.2.8.817 1.233 1.867 1.233 2.967v4.033c0 1.234-.55 1.8-1.8 1.8h-3.2v-9.15c0-.466.384-.85.85-.85zm0 0a3.35 3.35 0 0 0-3.35 3.35v11.65h5.7c2.633 0 4.3-1.666 4.3-4.3V30c0-1.833-.75-3.5-1.95-4.717a6.74 6.74 0 0 0-4.7-1.95c.016 0 0 0 0 0"/></g></svg>