<svg width="60" height="60" viewBox="0 0 60 60" fill="none" xmlns="http://www.w3.org/2000/svg">
<g id="material-symbols:book">
<path id="Vector" d="M15 55C13.625 55 12.4483 54.5108 11.47 53.5325C10.4917 52.5542 10.0017 51.3767 10 50V10C10 8.625 10.49 7.44833 11.47 6.47C12.45 5.49167 13.6267 5.00167 15 5H45C46.375 5 47.5525 5.49 48.5325 6.47C49.5125 7.45 50.0017 8.62667 50 10V50C50 51.375 49.5108 52.5525 48.5325 53.5325C47.5542 54.5125 46.3767 55.0017 45 55H15ZM27.5 27.5L33.75 23.75L40 27.5V10H27.5V27.5Z" fill="white"/>
</g>
</svg>
