<svg xmlns="http://www.w3.org/2000/svg" width="40" height="40" fill="none"><path fill="#081C3D" d="M28.334 3.334H11.667c-4.6 0-8.333 3.716-8.333 8.3v11.633c0 4.583 3.733 8.3 8.333 8.3h2.5c.45 0 1.05.3 1.333.666L18 35.55c1.1 1.467 2.9 1.467 4 0l2.5-3.316a1.69 1.69 0 0 1 1.334-.667h2.5c4.6 0 8.333-3.717 8.333-8.3V11.634c0-4.584-3.733-8.3-8.333-8.3M13.334 20a1.66 1.66 0 0 1-1.667-1.666c0-.917.75-1.667 1.667-1.667.916 0 1.666.75 1.666 1.666A1.66 1.66 0 0 1 13.334 20M20 20a1.66 1.66 0 0 1-1.666-1.666c0-.917.75-1.667 1.666-1.667.917 0 1.667.75 1.667 1.666A1.66 1.66 0 0 1 20 20m6.667 0A1.66 1.66 0 0 1 25 18.334c0-.917.75-1.667 1.667-1.667.916 0 1.666.75 1.666 1.666A1.66 1.66 0 0 1 26.668 20"/></svg>