<svg xmlns="http://www.w3.org/2000/svg" width="40" height="40" fill="none"><path fill="#fff" d="M30 5H10c-3.683 0-6.666 2.967-6.666 6.617v16.766C3.334 32.033 6.317 35 10 35h20c3.684 0 6.667-2.967 6.667-6.617V11.617C36.667 7.967 33.684 5 30 5m-15.833 6.95a3.86 3.86 0 0 1 3.85 3.85 3.86 3.86 0 0 1-3.85 3.85 3.86 3.86 0 0 1-3.85-3.85 3.86 3.86 0 0 1 3.85-3.85m6.45 15.817a.84.84 0 0 1-.617.266H8.334a.84.84 0 0 1-.617-.266.87.87 0 0 1-.217-.634 5.914 5.914 0 0 1 5.317-5.283c.883-.083 1.8-.083 2.683 0 2.8.267 5.05 2.483 5.317 5.283a.79.79 0 0 1-.2.634m11.05.15h-3.334a1.26 1.26 0 0 1-1.25-1.25c0-.684.567-1.25 1.25-1.25h3.334c.683 0 1.25.566 1.25 1.25a1.26 1.26 0 0 1-1.25 1.25m0-6.667H25A1.26 1.26 0 0 1 23.75 20c0-.683.567-1.25 1.25-1.25h6.667c.683 0 1.25.567 1.25 1.25a1.26 1.26 0 0 1-1.25 1.25m0-6.667h-8.333a1.26 1.26 0 0 1-1.25-1.25c0-.683.566-1.25 1.25-1.25h8.333c.683 0 1.25.567 1.25 1.25 0 .684-.567 1.25-1.25 1.25"/></svg>