<svg xmlns="http://www.w3.org/2000/svg" width="60" height="60" fill="none"><path fill="#fff" d="m53.093 13.221-22.5-7.5a1.88 1.88 0 0 0-1.186 0l-22.5 7.5A1.87 1.87 0 0 0 5.625 15v18.75a1.875 1.875 0 1 0 3.75 0V17.602l7.873 2.622a15 15 0 0 0 4.84 20.637c-4.22 1.655-7.866 4.648-10.533 8.74a1.875 1.875 0 1 0 3.14 2.048c3.532-5.419 9.11-8.524 15.305-8.524 6.194 0 11.773 3.105 15.305 8.524a1.875 1.875 0 0 0 3.14-2.048c-2.667-4.092-6.328-7.085-10.532-8.74a15 15 0 0 0 4.84-20.625l10.34-3.445a1.875 1.875 0 0 0 0-3.558zM41.25 28.125a11.25 11.25 0 1 1-20.309-6.668l8.466 2.813c.385.128.801.128 1.186 0l8.466-2.813a11.23 11.23 0 0 1 2.191 6.668"/></svg>