<svg xmlns="http://www.w3.org/2000/svg" width="40" height="40" fill="none"><path fill="#fff" d="M28.334 5.834H11.667c-5 0-8.333 2.5-8.333 8.333v11.667c0 5.833 3.333 8.333 8.333 8.333h16.667c5 0 8.333-2.5 8.333-8.333V14.167c0-5.833-3.333-8.333-8.333-8.333m.783 10.15-5.216 4.166c-1.1.884-2.5 1.317-3.9 1.317s-2.817-.433-3.9-1.317l-5.217-4.166a1.28 1.28 0 0 1-.2-1.767c.433-.534 1.217-.633 1.75-.2l5.217 4.166c1.266 1.017 3.416 1.017 4.683 0l5.217-4.166a1.23 1.23 0 0 1 1.75.2c.433.533.35 1.333-.184 1.766"/></svg>