<svg xmlns="http://www.w3.org/2000/svg" width="41" height="40" fill="none"><path fill="#fff" d="M20.579 0a20.25 20.25 0 0 0-14.2 5.89A19.92 19.92 0 0 0 .505 20a19.92 19.92 0 0 0 5.907 14.142A20.25 20.25 0 0 0 20.672 40a20.25 20.25 0 0 0 14.262-5.858A19.92 19.92 0 0 0 40.84 20a19.92 19.92 0 0 0-5.907-14.142A20.25 20.25 0 0 0 20.579 0m8.34 12.04c.167-.003.539.038.78.233.162.139.264.332.288.542.027.155.06.51.034.787-.303 3.163-1.617 10.836-2.286 14.378-.282 1.5-.839 2.002-1.378 2.05-1.17.108-2.059-.767-3.193-1.503-1.775-1.155-2.779-1.874-4.501-3-1.992-1.3-.701-2.017.433-3.184.298-.306 5.458-4.961 5.558-5.383.012-.053.024-.25-.094-.353-.117-.104-.292-.069-.418-.04q-.267.061-8.506 5.575-1.209.825-2.188.8c-.72-.014-2.104-.402-3.135-.734-1.264-.408-2.267-.623-2.18-1.315q.07-.54 1.501-1.105 8.819-3.81 11.762-5.023c5.6-2.31 6.764-2.712 7.522-2.725"/></svg>