<svg width="41" height="40" viewBox="0 0 41 40" fill="none" xmlns="http://www.w3.org/2000/svg">
<g id="Youtube icon">
<path id="Vector" d="M24.0396 19.6521L19.3211 17.4688C18.9094 17.2792 18.5711 17.4917 18.5711 17.9437V22.0563C18.5711 22.5083 18.9094 22.7208 19.3211 22.5312L24.0375 20.3479C24.4514 20.1562 24.4514 19.8438 24.0396 19.6521ZM20.672 0C9.53332 0 0.503906 8.95417 0.503906 20C0.503906 31.0458 9.53332 40 20.672 40C31.8106 40 40.84 31.0458 40.84 20C40.84 8.95417 31.8106 0 20.672 0ZM20.672 28.125C10.3484 28.125 10.1678 27.2021 10.1678 20C10.1678 12.7979 10.3484 11.875 20.672 11.875C30.9955 11.875 31.1762 12.7979 31.1762 20C31.1762 27.2021 30.9955 28.125 20.672 28.125Z" fill="white"/>
</g>
</svg>
